<?xml version="1.0" encoding="UTF-8" standalone="no"?>
<svg xmlns:rdf="http://www.w3.org/1999/02/22-rdf-syntax-ns#" xmlns="http://www.w3.org/2000/svg" enable-background="new 0 0 386.912 250.934" height="306.912px" viewBox="0 0 386.912 246.912" width="386.91px" version="1.1" y="0px" x="0px" xmlns:cc="http://creativecommons.org/ns#" xmlns:xlink="http://www.w3.org/1999/xlink" xmlns:dc="http://purl.org/dc/elements/1.1/"><g><path d="m281.32 239.69h3.882c2.043 0 2.414 1.507 2.414 2.17 0 0.841-0.426 1.568-1.182 1.826 0.625 0.277 0.969 0.515 0.969 1.946 0 1.122 0 1.4 0.343 1.531v0.206h-1.774c-0.106-0.368-0.172-0.763-0.172-1.552 0-1.051-0.065-1.456-1.253-1.456h-1.654v3.008h-1.572v-7.679zm3.453 3.377c0.831 0 1.243-0.288 1.243-1.051 0-0.404-0.186-1.002-1.126-1.002h-1.998v2.053h1.881z" clip-path="url(#a)"/><path d="m276.94 243.66c0-4.013 3.251-7.277 7.281-7.277 4.013 0 7.271 3.258 7.271 7.277 0 4.02-3.265 7.264-7.271 7.264-4.024 0-7.275-3.251-7.281-7.264zm0.789 0c0 3.588 2.897 6.481 6.492 6.481 3.576-0.007 6.48-2.894 6.48-6.481 0-3.584-2.904-6.488-6.48-6.495-3.595 0.007-6.482 2.911-6.492 6.495z" clip-path="url(#a)"/><path d="m334.75 87.149c3.629-10.06 18.174-50.376 18.174-50.376l-49.423-36.766h-138.41c-2.492-0.05-16.191 0.017-31.845 6.028-20.634 7.924-35.622 22.885-43.349 43.269-4.257 11.25-9 24.002-14.064 37.845h-25.11c-14.031 0-24.918 5.835-28.402 15.231-1.862 5.01-22.32 62.43-22.32 62.43h47.982c-3.512 10.017-17.236 49.315-17.236 49.315l51.547 35.712 138.78-0.011c2.308-0.082 56.655-2.529 70.987-43.597 0 0 11.023-30.923 14.769-41.42h28.712c15.547 0 25.393-5.417 29.261-16.086l22.114-61.576c0 0.001-41.218 0.004-52.165 0.004m-200.18 104.86c2.124-5.907 4.212-11.129 4.212-11.129h69.375s-2.925 7.594-4.191 11.129h-69.396m118.04-135.48-4.216 11.772h-69.209l4.232-11.772h69.193z" clip-path="url(#a)" fill="#bebebe"/><path d="m327.3 92.427c9.461-26.24 16.828-46.647 17.014-47.164l2.372-6.567-44.919-33.411h-136.68c-3.61-0.067-52.86-0.091-70.297 45.919-4.952 13.081-10.154 27.13-15.309 41.223h-28.756c-11.363 0-20.712 4.32-23.496 11.824-1.871 5.034-19.806 55.366-19.806 55.366h47.941c-9.382 26.528-15.902 45.375-16.043 45.773l-2.328 6.742 46.942 32.522h136.78l0.168-0.011c2.159-0.079 53.071-2.354 66.239-40.092 2.691-7.73 8.774-24.758 16.018-44.936h32.402c11.359 0 20.875-3.083 24.339-12.626 3.457-9.55 19.591-54.564 19.591-54.564h-52.171m-67.674-40.379-7.483 20.977h-80.332l7.52-20.98c-0.001 0 61.761 0.003 80.295 0.003m-132.49 145.19 8.328-21.95h80.479l-8.287 21.95h-80.52z" clip-path="url(#a)"/></g><g stroke="#ff7300" fill="#ff7300"><path d="m108.77 92.377c1.852-5.596 3.596-10.535 3.874-11.25 1.814-4.72 8.661-8.034 14.468-8.034h34.725l10.882-30.449 100.25 0.003-10.985 30.47h37.937s-2.829 8.661-6.361 19.26h23.762c10.123-28.101 18.159-50.359 18.159-50.359l-36.82-27.387h-23.006-40.46-70.211s-45.854-1.201-61.404 39.854c-4.59 12.082-9.365 24.939-14.106 37.893h19.285z" clip-path="url(#a)"/><path d="m278.63 158.96c-0.299 0.893-1.898 5.685-1.994 5.973-3.601 10.717-15.417 10.23-13.861 10.23h-37.864l-10.648 31.476h-100.5l11.311-31.321h-49.078l4.819-15.746h-15.614l-17.008 48.849 38.671 26.786h23.003 87.635 23.034s46.504-1.679 57.705-33.796c2.575-7.377 7.758-23.68 14.5-42.45h-14.112z" clip-path="url(#a)"/><polygon clip-path="url(#a)" points="114.87 106.73 107.04 110.89 106.78 111.03 107.12 111.03 130.39 111.03 130.6 111.03 130.75 110.96 140.42 106.76 127.66 141.11 116.74 147.02 136.73 147.02 149.63 111.03 172.33 111.03 175.48 102.49 175.45 102.49 167.63 106.73"/><polygon clip-path="url(#a)" points="235.48 106.73 228.13 110.63 227.38 111.03 228.14 111.03 250.68 111.03 251.2 111.03 251.36 110.96 260.99 106.77 248.27 141.11 237.33 147.02 257.33 147.02 270.23 111.03 292.94 111.03 296.09 102.49 296.07 102.49 288.24 106.73"/><path d="m211.35 132.31h-34.329l12.842-4.315h-0.208l14.298-18.04-0.007 0.151 7.751-4.602-0.037 0.01h-3.608c-10.021 0.268-18.681 10.831-18.681 10.831l-22.055 25.068-16.392 5.578-0.026 0.024h23.717l8.353-10.528h19.55l8.832-4.177z" clip-path="url(#a)"/><polygon clip-path="url(#a)" points="211.83 105.46 211.83 141.79 201.84 147 222.49 147 221.49 111.76 221.35 102.5"/><path d="m56.394 111.1h45.87l2.928-8.563-8.004 4.209h-40.105c-5.395 0-8.077 2.271-9.131 6.028-0.731 2.605-1.842 7.185-1.842 7.185l-6.996 3.786c2.019 1.494 4.722 2.334 7.309 2.959 5.494 1.339 28.558 7.357 28.772 7.412l10.432-4.178s-1.873 5.057-2.587 6.835c-0.573 1.435-3.108 5.901-10.032 5.901h-41.079l-7.966 4.294-0.003 0.014s33.985 0.007 50.071 0.007c16.462 0 18.422-8.28 19.358-11.122 0.63-1.916 1.248-5.747-1.537-8.901l-6.239 2.959-39.493-9.976 8.647-4.418 1.627-4.431z" clip-path="url(#a)"/><path d="m360.74 102.51-7.896 4.207h-35.454c-9.227 0-11.324 6.754-12.547 10.179-1.219 3.416-9.021 24.709-9.021 24.709l-10.212 5.403 59.168 0.035 3.103-8.585h-0.014l-5.85 4.329h-42.36l8.283-4.367 3.557-9.478h22.165l3.495-9.771-5.979 3.201h-22.121l6.048-3.201 2.822-8.143h39.807l3.028-8.517h-0.022z" clip-path="url(#a)"/></g><g fill="#fff"><path d="m126.52 89.754c-2.64 0-3.431-0.192-2.771-2.197l1.111-3.019c0.805-1.979 1.74-2.176 4.384-2.176 2.636 0 3.501 0.197 2.773 2.176l-1.11 3.019c-0.739 2.005-1.747 2.197-4.387 2.197m-1.143 3.112c5.153 0 9.097-0.788 10.616-4.911l1.392-3.793c1.519-4.123-1.845-4.911-7.003-4.911-5.152 0-9.097 0.788-10.612 4.911l-1.396 3.793c-1.517 4.123 1.851 4.911 7.003 4.911" clip-path="url(#a)"/><polygon points="154.6 79.36 160.74 79.36 151.62 85.93 156.37 92.763 150.08 92.763 146.71 87.507 145.18 87.507 143.25 92.763 138.17 92.763 143.1 79.36 148.18 79.36 146.33 84.401 147.85 84.401" clip-path="url(#a)"/><polygon points="171.93 92.763 158.9 92.763 163.83 79.358 168.91 79.358 165.12 89.651 173.07 89.651" clip-path="url(#a)"/><path d="m188.09 87.846h-4.717l4.442-5.803h0.05l0.225 5.803zm0.057 2.609 0.145 2.305h5.178l-0.857-13.403h-7.721l-10.641 13.403h5.279l1.79-2.305h6.827z" clip-path="url(#a)"/><polygon points="210.21 87.506 203.59 87.506 201.66 92.761 196.58 92.761 201.51 79.358 206.59 79.358 204.73 84.399 211.36 84.399 213.21 79.358 218.29 79.358 213.36 92.761 208.28 92.761" clip-path="url(#a)"/><path d="m228.25 89.754c-2.644 0-3.434-0.192-2.774-2.197l1.112-3.019c0.804-1.979 1.744-2.176 4.384-2.176 2.637 0 3.505 0.197 2.777 2.176l-1.112 3.019c-0.728 2.005-1.744 2.197-4.387 2.197m-1.146 3.112c5.155 0 9.097-0.788 10.621-4.911l1.394-3.793c1.514-4.123-1.851-4.911-7-4.911-5.159 0-9.1 0.788-10.624 4.911l-1.394 3.793c-1.518 4.123 1.853 4.911 7.003 4.911" clip-path="url(#a)"/><polygon points="245.81 79.358 253.85 79.358 254.38 87.777 254.56 87.777 261.11 79.358 269.36 79.358 264.43 92.761 259.36 92.761 263.64 82.483 263.46 82.483 254.87 92.761 250.47 92.761 249.38 82.483 249.22 82.483 245.95 92.761 240.88 92.761" clip-path="url(#a)"/><path d="m282.03 87.846h-4.717l4.442-5.803h0.051l0.224 5.803zm0.059 2.609 0.144 2.305h5.181l-0.865-13.403h-7.714l-10.643 13.403h5.279l1.789-2.305h6.829z" clip-path="url(#a)"/><path d="m106.95 155.79-3.203 8.706c-1.279 3.481-4.06 4.456-9.727 4.456-7.726 0-8.063-1.322-6.914-4.456l3.203-8.706h5.156l-3.181 8.637c-0.542 1.476 0.685 1.493 2.851 1.493 2.19 0 2.983-0.113 3.546-1.651l3.115-8.479h5.154z" clip-path="url(#a)"/><polygon points="112.98 155.79 121.69 155.79 123.54 165.82 123.75 165.82 127.12 155.79 132.28 155.79 127.48 168.85 118.69 168.85 116.92 158.82 116.71 158.82 113.33 168.85 108.18 168.85" clip-path="url(#a)"/><polygon points="138.23 155.79 143.38 155.79 138.58 168.85 133.43 168.85" clip-path="url(#a)"/><polygon points="156.2 168.85 148.17 168.85 147.51 155.79 152.74 155.79 153.21 165.86 153.37 165.86 161.32 155.79 166.65 155.79" clip-path="url(#a)"/><polygon points="180.9 163.46 172.65 163.46 171.72 166 180.68 166 179.63 168.85 165.52 168.85 170.32 155.79 184.25 155.79 183.2 158.65 174.42 158.65 173.54 161.03 181.79 161.03" clip-path="url(#a)"/><path d="m192.28 162.35 1.294-3.529h3.992c1.706 0 2.012 0.326 1.593 1.493-0.546 1.483-0.676 2.036-2.885 2.036h-3.994m-7.546 6.499h5.156l1.276-3.467h3.989c1.547 0 1.921 0.666 1.509 1.638l-0.671 1.83h5.147l0.971-2.637c0.543-1.476-0.524-2.259-2.626-2.31l0.049-0.137c3.872-0.577 4.339-1.847 5.142-4.02 1.202-3.254-0.755-3.896-5.193-3.955h-9.943l-4.806 13.058z" clip-path="url(#a)"/><path d="m217.79 160.92c5.623 0.278 6.859 0.762 5.761 3.756-0.797 2.163-1.448 4.284-9.948 4.284-4.923 0-8.163-0.069-6.591-4.356h4.943c-0.498 1.363 0.175 1.5 2.698 1.5 2.416 0 3.254-0.103 3.652-1.198 0.422-1.129 0.13-1.116-2.245-1.215l-1.119-0.058c-4.679-0.23-7.477-0.209-6.097-3.948 1.38-3.745 4.586-3.989 9.636-3.989 4.223 0 7.816 0.055 6.484 3.649l-0.192 0.549h-4.95c0.495-1.342-0.333-1.342-2.393-1.342-2.776 0-3.154 0.385-3.422 1.112-0.385 1.044 0.35 1.082 1.688 1.15l2.095 0.106z" clip-path="url(#a)"/><polygon points="231.72 155.79 236.86 155.79 232.06 168.85 226.92 168.85" clip-path="url(#a)"/><polygon points="243.93 158.82 238.98 158.82 240.1 155.79 255.4 155.79 254.28 158.82 249.08 158.82 245.4 168.85 240.24 168.85" clip-path="url(#a)"/><polygon points="257.93 168.85 259.61 164.27 255.88 155.79 261.77 155.79 263.37 160.83 263.56 160.83 268.95 155.79 274.93 155.79 264.76 164.27 263.07 168.85" clip-path="url(#a)"/></g><g stroke="#f90" fill="#f90"><polygon clip-path="url(#a)" points="65.201 159.57 48.228 208.34 82.356 189.8 87.459 175.29 75.944 175.29 80.891 159.57" stroke-width=".8"/><path d="m108.77 92.377c1.852-5.596 3.181-9.332 3.385-10.067 1.178-4.25 6.768-7.962 11.692-8.884l6.33-17.477s9.709-27.694 37.402-27.694l133.23 0.026-2.152-13.651h-136.34s-44.443 0.106-59.856 41.227l-13.118 36.52h19.428z" clip-path="url(#a)" stroke-width="0.8"/><g stroke-width=".8"><path d="m224.86 175.3-10.566 31.088-100.52 0.24-27.011 14.185h124.04s27.02-0.587 33.508-20.191l7.792-25.314-27.243-0.008z" clip-path="url(#a)"/><polygon clip-path="url(#a)" points="272.96 42.647 262.14 73.117 286.23 73.117 300.8 28.281"/><path d="m105.24 102.51h-50.541c-4.222 0-14.359 1.445-17.952 9.912-3.455 8.153 2.348 11.33 2.348 11.33l7.017-3.797s1.111-4.579 1.845-7.185c1.054-3.761 3.737-6.032 9.128-6.032h40.105l8.05-4.228z" clip-path="url(#a)"/><path d="m54.784 115.52-8.664 4.43 39.493 9.972 6.253-2.961c-1.617-1.883-4.116-3.11-8.235-4.186-1.565-0.429-1.653-0.403-28.847-7.255" clip-path="url(#a)"/><path d="m27.251 138.47-3.308 8.506 7.983-4.308h41.083c6.92 0 9.459-4.466 10.029-5.901 0.716-1.775 2.586-6.835 2.586-6.835l-10.436 4.181-1.505 4.356h-46.432z" clip-path="url(#a)"/><polygon clip-path="url(#a)" points="167.63 106.73 175.48 102.47 109.88 102.47 106.78 111.03 114.87 106.73"/><polygon clip-path="url(#a)" points="140.42 106.76 130.6 111.03 116.71 147.04 127.66 141.11"/><path d="m221.38 102.49h-16.573s-12.734-0.651-25.333 14.282l-20.557 22.286-8.01 7.933 16.409-5.582 22.054-25.07s8.664-10.56 18.678-10.827h3.611l9.721-3.022z" clip-path="url(#a)"/><polygon clip-path="url(#a)" points="189.91 127.97 177.02 132.31 211.35 132.31 202.52 136.48 201.84 147 211.84 141.79 211.83 105.42 203.91 110.12 203.49 127.97"/><polygon clip-path="url(#a)" points="288.23 106.73 296.13 102.46 230.46 102.49 227.38 111.03 235.48 106.73"/><polygon clip-path="url(#a)" points="260.99 106.77 251.2 111.03 237.29 147.04 248.26 141.11"/><path d="m360.78 102.49-42.581 0.053s-15.221-1.21-20.683 12.169l-9.234 24.469-2.701 7.844 10.243-5.417s7.799-21.297 9.015-24.712c1.222-3.421 3.326-10.173 12.55-10.173h35.454l7.937-4.233z" clip-path="url(#a)"/><polygon clip-path="url(#a)" points="309.05 122.38 331.18 122.38 337.15 119.17 315.1 119.17"/><polygon clip-path="url(#a)" points="299.66 142.79 342.02 142.79 347.91 138.43 307.96 138.41"/></g></g></svg>
